<svg width="30" height="30" fill="none" xmlns="http://www.w3.org/2000/svg"><path d="m15.42 21.796.11-.126c.326-.44.29-1.066-.11-1.465l-4.079-4.079h10.035l.152-.01c.55-.075.973-.546.973-1.115l-.01-.153a1.125 1.125 0 0 0-1.115-.972H11.338l4.083-4.081.11-.126a1.125 1.125 0 0 0-1.7-1.465l-6.003 6-.109.126c-.327.44-.29 1.065.109 1.465l6.001 6.001.126.109c.44.327 1.066.29 1.465-.109ZM15 0C6.716 0 0 6.716 0 15c0 8.284 6.716 15 15 15 8.284 0 15-6.716 15-15 0-8.284-6.716-15-15-15Zm0 27.75C7.958 27.75 2.25 22.042 2.25 15S7.958 2.25 15 2.25 27.75 7.958 27.75 15 22.042 27.75 15 27.75Z" fill="#212121"/></svg>