<svg width="30" height="30" fill="none" xmlns="http://www.w3.org/2000/svg"><path d="M15 0c8.284 0 15 6.716 15 15 0 8.284-6.716 15-15 15-8.284 0-15-6.716-15-15C0 6.716 6.716 0 15 0Zm0 2.25C7.958 2.25 2.25 7.958 2.25 15S7.958 27.75 15 27.75 27.75 22.042 27.75 15 22.042 2.25 15 2.25Zm-.53 6.08.11-.127c.399-.399 1.024-.435 1.464-.108l.127.108 6 6.002c.4.4.436 1.024.11 1.465l-.11.126-6.002 6a1.125 1.125 0 0 1-1.7-1.465l.11-.127 4.082-4.08H8.624c-.57 0-1.04-.423-1.115-.972l-.01-.153c0-.57.423-1.04.972-1.115l.153-.01h10.034l-4.079-4.08c-.399-.399-.435-1.024-.109-1.464Z" fill="#212121"/></svg>